<svg width="700" height="700" xmlns="http://www.w3.org/2000/svg" version="1.1">

 <g>
  <title>Layer 1</title>
  <g id="svg_1" fill-rule="evenodd">
   <path id="svg_2" d="m162.21551,160.66149l0,-21.69116l29.56421,0l0,14.46242c0,11.97377 9.93389,21.69116 22.17443,21.69116s22.17443,-9.71739 22.17443,-21.69116l0,-36.15358c0,-11.97377 -9.93389,-21.69116 -22.17443,-21.69116l-73.91306,0c-12.24054,0 -22.17443,9.71739 -22.17443,21.69116l0,43.38232c0,11.97377 9.93389,21.69116 22.17443,21.69116c12.24054,0 22.17443,-9.71739 22.17443,-21.69116z"/>
   <path id="svg_3" d="m420.9087,182.35264c-85.68325,0 -155.22098,68.02223 -155.22098,151.8381s69.53773,151.8381 155.22098,151.8381c85.68325,0 155.22098,-68.02223 155.22098,-151.8381s-69.53773,-151.8381 -155.22098,-151.8381zm0,43.38232c61.20268,0 110.87213,48.58695 110.87213,108.45579s-49.66945,108.45579 -110.87213,108.45579s-110.87213,-48.58695 -110.87213,-108.45579s49.66945,-108.45579 110.87213,-108.45579z"/>
   <path id="svg_4" d="m140.04108,269.11728l59.13349,0c12.24054,0 22.17443,-9.71739 22.17443,-21.69116s-9.93389,-21.69116 -22.17443,-21.69116l-59.13349,0c-12.24054,0 -22.17443,9.71739 -22.17443,21.69116s9.93389,21.69116 22.17443,21.69116z"/>
   <path id="svg_5" d="m546.63136,138.97033c-2.92525,0 -5.55843,-1.70431 -6.74141,-4.30923l-17.00208,-37.77112c-8.25104,-18.36435 -26.84753,-30.2226 -47.36331,-30.2226l-153.56107,0c-20.51578,0 -39.11695,11.8575 -47.36331,30.2226l-17.00208,37.77112c-1.18296,2.60492 -3.81616,4.30923 -6.77118,4.30923l-140.34511,0c-21.55608,0 -42.25052,8.38593 -57.50526,23.28391c-15.22559,14.92228 -23.80266,35.17066 -23.80266,56.25199l0,260.29389c0,21.08628 8.57276,41.32971 23.80266,56.25199c15.25474,14.89377 35.95425,23.28391 57.50526,23.28391l473.0502,0c21.55608,0 42.25052,-8.38593 57.50526,-23.28391c15.22559,-14.92228 23.80266,-35.17066 23.80266,-56.25199l0,-260.29389c0,-21.08628 -8.57276,-41.32971 -23.80266,-56.25199c-15.25474,-14.89377 -35.95425,-23.28391 -57.50526,-23.28391l-36.90065,0zm0,43.38232l36.89951,0c9.81516,0 19.19038,3.81529 26.13414,10.58417c6.91956,6.79788 10.81998,15.96345 10.81998,25.56458l0,260.29389c0,9.60125 -3.90029,18.77215 -10.81998,25.56458c-6.94934,6.76876 -16.31911,10.58417 -26.13414,10.58417l-473.0502,0c-9.81516,0 -19.19038,-3.81529 -26.13414,-10.58417c-6.91956,-6.79788 -10.81998,-15.96345 -10.81998,-25.56458l0,-260.29389c0,-9.60125 3.90029,-18.77215 10.81998,-25.56458c6.94934,-6.76876 16.31911,-10.58417 26.13414,-10.58417l140.34511,0c20.51578,0 39.11695,-11.8575 47.36331,-30.2226l17.00208,-37.77112c1.18296,-2.60492 3.81616,-4.30923 6.77118,-4.30923l153.56107,0c2.9549,0 5.58821,1.70431 6.77118,4.30923l17.00208,37.77112c8.25104,18.36435 26.84753,30.2226 47.3329,30.2226l0.00177,0z"/>
  </g>
 </g>
</svg>