<svg width="700" height="700" xmlns="http://www.w3.org/2000/svg" version="1.1">

 <g>
  <title>Layer 1</title>
  <path id="svg_1" d="m541.43438,434.92852c-31.17042,0.004 -60.45636,14.55991 -78.80287,39.17515l-218.60023,-106.76043c5.67638,-18.1595 5.67638,-37.55738 0,-55.71585l218.60023,-106.76043c19.38088,25.64091 50.68217,40.01778 83.26387,38.23639c32.57751,-1.78159 62.04352,-19.47764 78.37258,-47.07174c16.32592,-27.59409 17.31946,-61.36884 2.63367,-89.83419c-14.68118,-28.46127 -43.06362,-47.77938 -75.48618,-51.37794c-32.42256,-3.60306 -64.51743,8.99978 -85.36611,33.51807c-20.84868,24.51502 -27.64539,57.64552 -18.0764,88.11621l-218.60023,106.76043c-16.31336,-21.82658 -41.33303,-35.87927 -68.85279,-38.66384c-27.5229,-2.78426 -54.96414,5.95588 -75.51026,24.05177c-20.54612,18.09916 -32.27913,43.86074 -32.27913,70.8832s11.73301,52.78403 32.27913,70.8832c20.54612,18.09507 47.98736,26.83532 75.51026,24.05177c27.51871,-2.78426 52.53943,-16.83726 68.85279,-38.66384l218.60023,106.76043c-8.0524,25.77692 -4.57626,53.67472 9.57779,76.81126c14.15039,23.13654 37.65724,39.34694 64.71321,44.63486c27.05283,5.28485 55.13584,-0.84684 77.30994,-16.88124c22.1741,-16.03861 36.37684,-40.48511 39.09678,-67.29997c2.71963,-26.81998 -6.29795,-53.51111 -24.81971,-73.48369s-44.8298,-31.36957 -72.41866,-31.36957l0.00209,0z"/>
 </g>
</svg>