<svg width="581" height="545" xmlns="http://www.w3.org/2000/svg" version="1.1">

 <g>
  <title>Layer 1</title>
  <g id="svg_21">
   <path id="svg_22" d="m519.81485,3.00015l-1.28605,0c-32.12676,0 -58.68367,35.9853 -58.68367,80.8102l0,108.5323c-30.41579,-59.58002 -80.53231,-97.92142 -137.0742,-97.92142c-92.52753,0 -167.91589,103.8201 -167.91589,231.22817l0,174.01099l-64.68433,0.00659l0,-48.36747c20.98704,-12.38992 31.69596,-51.91005 31.69596,-118.56679c0,-60.75807 -9.85319,-163.98493 -47.11926,-163.98493c-37.26582,0 -47.11926,103.22686 -47.11926,163.98493c0,66.65674 10.70892,106.1762 31.69596,117.97355l0,48.36747l-39.40761,0c-8.56714,0 -15.42329,9.44058 -15.42329,21.23861s6.85567,21.23861 15.42329,21.23861l543.15651,0c8.56714,0 15.42329,-9.44058 15.42329,-21.23861l0.00479,-165.16298l0,-271.33918c0,-44.24008 -26.13222,-80.8102 -58.68367,-80.8102l-0.00258,0.00015zm-445.06278,211.17266c5.99504,11.79736 16.27878,52.49486 16.27878,119.1516c0,50.13876 -5.99504,79.63215 -16.27878,79.63215c-10.27861,0 -16.27878,-30.67144 -16.27878,-79.63215c0.00479,-67.2483 10.28338,-107.35425 16.27878,-119.1516zm415.93452,-2.94934l56.97269,0l0,123.27899l-56.97269,0l0,-123.27899zm0,-127.41481c0,-21.23861 12.4199,-38.34141 27.8432,-38.34141l1.71147,0c15.42329,0 27.8432,17.10279 27.8432,38.34141l0,84.93759l-56.97269,0l0.00479,-84.93759l-0.42996,0zm-125.0802,415.85678l-86.10218,0l0,-83.75954l86.52686,0l0,83.75954l-0.42469,0zm93.80771,0l-62.96724,0l0,-104.99815c0,-11.79736 -6.85567,-21.23861 -15.42329,-21.23861l-116.93775,0.00659c-8.56714,0 -15.42329,9.44058 -15.42329,21.23861l0,104.99815l-62.96724,-0.00659l0,-174.60086c0,-103.8201 61.25626,-188.75769 137.0742,-188.75769s137.0742,84.35278 137.0742,188.75769l0,174.60086l-0.42958,0zm88.24396,0l-56.97269,0l0,-123.27899l56.97269,0l0,123.27899z"/>
   <path id="svg_23" d="m348.04375,230.09924l-50.97202,0c-8.56714,0 -15.42329,9.44058 -15.42329,21.23861s6.85567,21.23861 15.42329,21.23861l50.54733,0c8.56714,0 15.42329,-9.44058 15.42329,-21.23861c0.42549,-11.80393 -6.43013,-21.23861 -14.99739,-21.23861l-0.00122,0z"/>
  </g>
 </g>
</svg>