<svg width="700" height="700" xmlns="http://www.w3.org/2000/svg" version="1.1">

 <g>
  <title>Layer 1</title>
  <g id="svg_25">
   <path id="svg_26" d="m670.55216,218.34922c-88.09576,-90.88172 -202.73564,-141.21619 -321.62027,-141.21619s-233.52712,50.33447 -321.62027,141.21619c-4.51743,4.69031 -7.15866,11.27893 -7.31164,18.23846c-0.14786,6.96013 2.19756,13.68799 6.50602,18.62781l307.00117,349.52221c4.19111,4.75422 9.87116,7.43032 15.79124,7.43032s11.59452,-2.6761 15.78602,-7.43032l307.00117,-349.10611c4.339,-5.06777 6.63342,-11.95241 6.34286,-19.01716c-0.29063,-7.0646 -3.14598,-13.67639 -7.87761,-18.26224l0.00131,-0.00297zm-66.51823,40.86081l-239.3095,272.38064c-4.13512,4.88202 -9.83552,7.63926 -15.79124,7.63926s-11.65573,-2.75739 -15.79124,-7.63926l-239.3095,-272.38064c-4.6041,-5.25933 -6.96483,-12.55025 -6.46008,-19.95189c0.50987,-7.40714 3.82916,-14.1931 9.09099,-18.58174c73.65156,-59.9597 161.93267,-92.19986 252.47975,-92.19986s178.82296,32.24015 252.47975,92.19986c5.26183,4.3885 8.58115,11.17446 9.09099,18.58174c0.50478,7.40134 -1.85597,14.69227 -6.46008,19.95189l-0.01984,0z"/>
   <path id="svg_27" d="m403.02257,250.2996l0,-35.36981c-0.04079,-13.47325 -4.75708,-26.37763 -13.12456,-35.9033c-8.36709,-9.52597 -19.70707,-14.90076 -31.54072,-14.94237l-18.85473,0c-11.83416,0.04063 -23.17389,5.41596 -31.54072,14.94237c-8.36709,9.52597 -13.08279,22.43065 -13.12456,35.9033l0,35.36981c-8.39763,4.37111 -15.51583,11.40093 -20.49154,20.25951c-4.98146,8.85828 -7.60729,19.15685 -7.57674,29.67521l0,77.47297c0.04079,14.42522 5.08849,28.24116 14.04739,38.44001c8.95342,10.19351 21.09328,15.94546 33.75838,15.98707l68.71109,0c12.66523,-0.04063 24.80549,-5.79327 33.75838,-15.98707c8.95851,-10.1993 14.00562,-24.01479 14.04739,-38.44001l0,-78.22789l0,0.00581c-0.09177,-10.39086 -2.78389,-20.53146 -7.75517,-29.23979c-4.97128,-8.71324 -12.01769,-15.63339 -20.31272,-19.94595l-0.00117,0.00013zm-74.41124,123.91246l0,-24.96736c-6.62324,-7.44771 -9.73345,-18.0423 -8.37727,-28.525c1.3614,-10.48373 7.02095,-19.60861 15.24564,-24.56612c8.38236,-5.20702 18.51927,-5.20702 26.90046,0c8.22429,4.95736 13.88423,14.08283 15.24564,24.56612c1.35631,10.48373 -1.75403,21.07833 -8.37727,28.525l0,24.96736c0,8.26623 -3.86989,15.90534 -10.15662,20.03808s-14.03695,4.13304 -20.32316,0s-10.15662,-11.77245 -10.15662,-20.03808l-0.00078,0zm6.87307,-159.27632l-0.0051,0c0.11218,-2.45542 1.86106,-4.41183 4.02286,-4.49297l18.85995,0l-0.00509,0c2.1618,0.08127 3.91074,2.03754 4.02286,4.49297l0,30.45836l-26.90046,0l0.00497,-30.45836z"/>
  </g>
 </g>
</svg>